#!OML:ASF F:\VICON\USERDATA\INSTALL\Justin_Nancy\Justin_Nancy.ASF
:FULLY-SPECIFIED
:DEGREES
347
root 8.53801 17.5368 17.3547 1.65792 38.6211 4.12278
lowerback 5.74441 -0.0097241 -3.01162
upperback 0.295518 -0.165182 1.3144
thorax -2.90506 -0.0328737 3.06356
lowerneck -14.4366 -2.61646 -9.53447
upperneck 24.8552 -1.86965 3.03913
head 10.4941 -1.33618 2.45932
rclavicle 1.43373e-014 -3.18055e-015
rhumerus -33.6079 -14.3483 -78.461
rradius 31.8449
rwrist 9.87197
rhand -14.8487 12.8906
rfingers 7.12502
rthumb 11.3106 -16.7844
lclavicle 1.43373e-014 -3.18055e-015
lhumerus -32.546 10.8216 85.2897
lradius 22.4209
lwrist -13.5613
lhand -12.5372 25.5299
lfingers 7.12502
lthumb 13.5393 55.0697
rfemur -18.1678 -3.07331 17.9863
rtibia 72.4452
rfoot 3.95473 -6.98655
rtoes 5.24735
lfemur -12.2981 -1.49793 -27.6213
ltibia 25.5081
lfoot -8.99566 1.75342
ltoes 4.93618
348
root 8.62911 17.5149 17.4651 1.72478 38.4771 4.2654
lowerback 5.73558 -0.0284487 -3.185
upperback 0.334233 -0.201016 1.30832
thorax -2.8569 -0.0499495 3.1578
lowerneck -14.6844 -2.63351 -9.57861
upperneck 25.0927 -1.87965 3.13145
head 10.6315 -1.33784 2.5013
rclavicle -1.14276e-013 1.59028e-015
rhumerus -33.7625 -14.6605 -78.3598
rradius 31.4888
rwrist 9.76201
rhand -14.9677 12.6508
rfingers 7.12502
rthumb 11.1959 -17.0305
lclavicle -1.14276e-013 1.59028e-015
lhumerus -32.3073 10.3671 85.3593
lradius 22.839
lwrist -13.0544
lhand -12.3899 22.7382
lfingers 7.12502
lthumb 13.6812 52.2686
rfemur -19.1978 -3.29869 17.865
rtibia 72.6933
rfoot 2.74099 -7.83888
rtoes 4.63013
lfemur -11.7826 -1.60679 -27.7676
ltibia 25.6556
lfoot -9.57131 2.01219
ltoes 5.06393
349
root 8.72987 17.5056 17.5727 2.02664 38.4857 4.69521
lowerback 5.78789 -0.112537 -3.35201
upperback 0.270321 -0.32932 1.21648
thorax -2.94194 -0.109779 3.16799
lowerneck -14.6244 -2.58931 -9.53778
upperneck 25.1638 -1.82532 3.10154
head 10.6412 -1.31413 2.4923
rclavicle 6.37353e-014 -6.36111e-015
rhumerus -34.0325 -14.7776 -78.1938
rradius 31.0808
rwrist 9.54454
rhand -15.0114 12.5687
rfingers 7.12502
rthumb 11.1537 -17.1148
lclavicle 6.37353e-014 -6.36111e-015
lhumerus -32.141 10.2555 85.359
lradius 23.0781
lwrist -12.6545
lhand -12.7943 22.1446
lfingers 7.12502
lthumb 13.2915 51.7008
rfemur -20.3702 -3.49258 17.3736
rtibia 72.8161
rfoot 1.60124 -8.08981
rtoes 5.57587
lfemur -11.3566 -1.70013 -28.2283
ltibia 25.9008
lfoot -10.1824 2.27032
ltoes 4.34575
350
root 8.82448 17.508 17.6806 2.12383 38.5367 4.84784
lowerback 5.90046 -0.185768 -3.40955
upperback 0.29871 -0.4319 1.27698
thorax -2.96671 -0.15952 3.27258
lowerneck -14.5559 -2.55671 -9.57241
upperneck 24.9976 -1.76213 3.03593
head 10.5625 -1.29364 2.48056
rclavicle -1.21756e-014 2.70347e-014
rhumerus -33.9179 -14.6865 -78.0077
rradius 30.5944
rwrist 8.84709
rhand -15.1286 12.4588
rfingers 7.12502
rthumb 11.0407 -17.2308
lclavicle -1.21756e-014 2.70347e-014
lhumerus -31.6053 10.448 85.5478
lradius 23.1717
lwrist -12.3357
lhand -13.5529 26.3136
lfingers 7.12502
lthumb 12.5602 55.916
rfemur -21.5578 -3.47953 17.1403
rtibia 72.7294
rfoot 0.975056 -8.00703
rtoes 5.88285
lfemur -10.8808 -1.76883 -28.4226
ltibia 26.0775
lfoot -10.7266 2.43795
ltoes 4.41316
351
root 8.90801 17.4994 17.801 1.9668 38.4983 4.63223
lowerback 5.90599 -0.167385 -3.38351
upperback 0.378165 -0.400541 1.40851
thorax -2.88943 -0.146039 3.39136
lowerneck -14.6869 -2.62609 -9.62784
upperneck 25.0533 -1.83438 3.04547
head 10.6151 -1.33164 2.4838
rclavicle 2.03257e-014 -1.59028e-015
rhumerus -33.7898 -14.9441 -77.8347
rradius 30.0098
rwrist 8.49054
rhand -15.3963 12.6077
rfingers 7.12502
rthumb 10.7825 -17.0955
lclavicle 2.03257e-014 -1.59028e-015
lhumerus -31.1253 10.094 85.7672
lradius 23.531
lwrist -12.1225
lhand -13.4207 25.9706
lfingers 7.12502
lthumb 12.6876 55.5652
rfemur -22.6184 -3.31531 17.3469
rtibia 72.4341
rfoot -0.151247 -8.25048
rtoes 6.52746
lfemur -10.3819 -1.72587 -28.2365
ltibia 26.1719
lfoot -11.1606 2.56281
ltoes 4.05559
352
root 8.99298 17.4863 17.9177 1.80399 38.4533 4.39855
lowerback 5.892 -0.218408 -3.36532
upperback 0.44984 -0.461698 1.54445
thorax -2.80137 -0.178698 3.52658
lowerneck -15.0387 -2.62417 -9.73365
upperneck 25.381 -1.79889 3.17716
head 10.8049 -1.31502 2.55812
rclavicle -2.03754e-015 -6.36111e-015
rhumerus -34.0623 -15.1456 -77.7338
rradius 29.8258
rwrist 8.58359
rhand -15.1563 12.5418
rfingers 7.12502
rthumb 11.014 -17.1493
lclavicle -2.03754e-015 -6.36111e-015
lhumerus -30.7489 10.0544 85.7571
lradius 23.8594
lwrist -12.2006
lhand -13.2571 21.0433
lfingers 7.12502
lthumb 12.8454 50.6281
rfemur -23.6187 -3.2618 17.5663
rtibia 71.9786
rfoot -1.42096 -8.40287
rtoes 7.79782
lfemur -9.91312 -1.75004 -28.0508
ltibia 26.3381
lfoot -11.6232 2.77787
ltoes 3.09602
353
root 9.08067 17.4738 18.0242 1.98214 38.4281 4.51688
lowerback 5.84865 -0.304935 -3.47028
upperback 0.469503 -0.582753 1.53429
thorax -2.74542 -0.239367 3.58438
lowerneck -15.1322 -2.57605 -9.65773
upperneck 25.3334 -1.75572 3.21955
head 10.8004 -1.28236 2.5657
rclavicle 4.82053e-014 -2.38542e-015
rhumerus -34.2957 -15.2746 -77.7202
rradius 29.6355
rwrist 8.58586
rhand -14.8618 12.4283
rfingers 7.12502
rthumb 11.298 -17.2475
lclavicle 4.82053e-014 -2.38542e-015
lhumerus -30.2256 10.5795 85.5064
lradius 23.8839
lwrist -12.4928
lhand -13.3309 20.5782
lfingers 7.12502
lthumb 12.7742 50.1674
rfemur -24.7383 -3.1784 17.4489
rtibia 71.3652
rfoot -2.29681 -8.28725
rtoes 6.75971
lfemur -9.61937 -1.70848 -28.1622
ltibia 26.641
lfoot -12.175 2.82797
ltoes 3.16509
354
root 9.16773 17.4542 18.1286 2.25192 38.5193 4.88015
lowerback 6.06135 -0.378616 -3.65412
upperback 0.357789 -0.705124 1.42237
thorax -2.9688 -0.292114 3.58603
lowerneck -14.8024 -2.5316 -9.50432
upperneck 25.0564 -1.78101 3.24973
head 10.6319 -1.27208 2.54404
rclavicle 1.94312e-014 -1.43125e-014
rhumerus -34.625 -15.367 -77.6915
rradius 29.2821
rwrist 8.40036
rhand -15.3434 12.8794
rfingers 7.12502
rthumb 10.8336 -16.8212
lclavicle 1.94312e-014 -1.43125e-014
lhumerus -30.1589 9.90255 85.6067
lradius 24.5194
lwrist -11.7901
lhand -13.7622 22.3569
lfingers 7.12502
lthumb 12.3584 51.9717
rfemur -25.7389 -3.2143 17.1064
rtibia 70.6383
rfoot -3.29227 -8.25496
rtoes 4.71112
lfemur -9.26334 -1.84064 -28.4971
ltibia 26.9741
lfoot -12.9235 2.92319
ltoes 4.9407
355
root 9.25071 17.4265 18.2356 2.34348 38.6157 5.00308
lowerback 6.2643 -0.463296 -3.73033
upperback 0.321472 -0.830195 1.43483
thorax -3.1079 -0.349452 3.65634
lowerneck -14.7293 -2.50583 -9.52286
upperneck 24.9459 -1.76331 3.30135
head 10.5758 -1.25822 2.5667
rclavicle 1.15593e-013 -9.54166e-015
rhumerus -34.6323 -15.2567 -77.6763
rradius 28.8992
rwrist 8.21072
rhand -15.9283 13.099
rfingers 7.12502
rthumb 10.2694 -16.6303
lclavicle 1.15593e-013 -9.54166e-015
lhumerus -30.0684 8.98373 85.8531
lradius 25.2811
lwrist -11.0323
lhand -13.9368 21.4293
lfingers 7.12502
lthumb 12.19 51.0541
rfemur -26.6368 -3.17979 17.0118
rtibia 69.7668
rfoot -4.28536 -8.23249
rtoes 2.57635
lfemur -8.97171 -1.9283 -28.6465
ltibia 27.3485
lfoot -13.7512 3.16381
ltoes 6.62224
356
root 9.32604 17.3967 18.3418 2.50224 38.6294 5.13219
lowerback 6.31438 -0.602275 -4.02791
upperback 0.431793 -1.03161 1.58537
thorax -2.99554 -0.449184 3.99825
lowerneck -15.1357 -2.44646 -9.77778
upperneck 24.9591 -1.59098 3.37623
head 10.6514 -1.19419 2.65915
rclavicle -3.49861e-014 -1.59028e-014
rhumerus -34.0309 -15.1869 -77.5718
rradius 28.3722
rwrist 8.49938
rhand -15.7266 12.9751
rfingers 7.12502
rthumb 10.4639 -16.7445
lclavicle -3.49861e-014 -1.59028e-014
lhumerus -29.4981 8.88521 86.121
lradius 25.7457
lwrist -10.3728
lhand -13.7367 21.5459
lfingers 7.12502
lthumb 12.383 51.1592
rfemur -27.6184 -3.20953 16.9617
rtibia 68.8084
rfoot -5.2523 -8.02479
rtoes 1.51535
lfemur -8.7896 -2.0137 -28.7806
ltibia 27.7097
lfoot -14.4215 3.41132
ltoes 7.11462
357
root 9.40711 17.3718 18.451 2.64377 38.696 5.20596
lowerback 6.44833 -0.7009 -4.1365
upperback 0.395903 -1.17474 1.63265
thorax -3.09064 -0.515601 4.12472
lowerneck -15.2033 -2.41993 -9.76629
upperneck 24.8572 -1.54803 3.3609
head 10.6233 -1.17365 2.65555
rclavicle 5.46658e-015 3.18055e-015
rhumerus -34.0084 -15.1791 -77.4856
rradius 28.0546
rwrist 8.78284
rhand -15.263 12.9205
rfingers 7.12502
rthumb 10.9111 -16.776
lclavicle 5.46658e-015 3.18055e-015
lhumerus -29.1137 8.6898 86.2063
lradius 26.0739
lwrist -9.91365
lhand -14.118 23.2383
lfingers 7.12502
lthumb 12.0153 52.8734
rfemur -28.4867 -3.3402 16.9135
rtibia 67.6552
rfoot -6.50036 -7.80098
rtoes 3.13077
lfemur -8.53188 -1.90124 -28.8335
ltibia 28.0493
lfoot -15.0683 3.33713
ltoes 6.84791
358
root 9.48914 17.3552 18.5643 2.83422 38.7685 5.34379
lowerback 6.68737 -0.707351 -4.18627
upperback 0.203855 -1.20222 1.5507
thorax -3.42218 -0.517015 4.07836
lowerneck -14.768 -2.44049 -9.51439
upperneck 24.5924 -1.66574 3.259
head 10.4457 -1.21263 2.55712
rclavicle 1.26029e-013 9.54166e-015
rhumerus -34.55 -15.2401 -77.4253
rradius 27.9088
rwrist 9.00693
rhand -15.0655 12.7667
rfingers 7.12502
rthumb 11.1016 -16.9197
lclavicle 1.26029e-013 9.54166e-015
lhumerus -29.2584 7.78293 86.1827
lradius 26.6611
lwrist -9.50844
lhand -14.4981 22.7015
lfingers 7.12502
lthumb 11.6488 52.3577
rfemur -29.3004 -3.36593 16.8009
rtibia 66.241
rfoot -7.51292 -7.78304
rtoes 4.75928
lfemur -8.20301 -1.75316 -28.9279
ltibia 28.2167
lfoot -15.5236 3.29937
ltoes 5.33708
359
root 9.56725 17.3396 18.6734 3.05251 38.8178 5.37255
lowerback 6.6461 -0.720785 -4.29627
upperback 0.113717 -1.22851 1.5508
thorax -3.4879 -0.525011 4.14365
lowerneck -14.226 -2.42293 -9.17533
upperneck 24.1026 -1.7474 3.09988
head 10.1623 -1.23092 2.42668
rclavicle 4.96962e-016 1.11319e-014
rhumerus -35.0116 -15.3511 -77.4206
rradius 27.9069
rwrist 9.06774
rhand -15.2843 12.7616
rfingers 7.12502
rthumb 10.8905 -16.936
lclavicle 4.96962e-016 1.11319e-014
lhumerus -29.2551 6.36398 86.5221
lradius 27.5948
lwrist -8.18225
lhand -14.6119 23.8927
lfingers 7.12502
lthumb 11.539 53.555
rfemur -30.1541 -3.22337 16.8202
rtibia 64.5539
rfoot -8.29872 -8.10682
rtoes 4.44751
lfemur -8.02071 -1.5758 -28.9722
ltibia 28.2489
lfoot -15.6772 3.58591
ltoes 1.23866
